<mxfile host="Electron" modified="2023-07-16T22:16:57.658Z" agent="Mozilla/5.0 (Windows NT 10.0; Win64; x64) AppleWebKit/537.36 (KHTML, like Gecko) draw.io/21.6.1 Chrome/112.0.5615.204 Electron/24.6.1 Safari/537.36" etag="E1Z6t9zB7HEleOJZ-Hbp" version="21.6.1" type="device">
  <diagram id="R2lEEEUBdFMjLlhIrx00" name="Page-1">
    <mxGraphModel dx="1434" dy="854" grid="1" gridSize="10" guides="1" tooltips="1" connect="1" arrows="1" fold="1" page="1" pageScale="1" pageWidth="800" pageHeight="800" math="0" shadow="0" extFonts="Permanent Marker^https://fonts.googleapis.com/css?family=Permanent+Marker">
      <root>
        <mxCell id="0" />
        <mxCell id="1" parent="0" />
        <mxCell id="6BdJaYgQymG1dsfQ54jL-9" value="0...N" style="edgeStyle=orthogonalEdgeStyle;rounded=0;orthogonalLoop=1;jettySize=auto;html=1;exitX=0.5;exitY=1;exitDx=0;exitDy=0;entryX=0.5;entryY=0;entryDx=0;entryDy=0;endArrow=none;endFill=0;endSize=8;startSize=8;strokeWidth=2;" edge="1" parent="1" source="6BdJaYgQymG1dsfQ54jL-1" target="6BdJaYgQymG1dsfQ54jL-3">
          <mxGeometry relative="1" as="geometry" />
        </mxCell>
        <mxCell id="6BdJaYgQymG1dsfQ54jL-1" value="Cliente" style="rounded=0;whiteSpace=wrap;html=1;" vertex="1" parent="1">
          <mxGeometry x="160" y="234" width="120" height="60" as="geometry" />
        </mxCell>
        <mxCell id="6BdJaYgQymG1dsfQ54jL-10" value="0...N" style="edgeStyle=orthogonalEdgeStyle;rounded=0;orthogonalLoop=1;jettySize=auto;html=1;exitX=0.5;exitY=1;exitDx=0;exitDy=0;entryX=0.5;entryY=0;entryDx=0;entryDy=0;endArrow=none;endFill=0;endSize=8;startSize=8;strokeWidth=2;" edge="1" parent="1" source="6BdJaYgQymG1dsfQ54jL-3" target="6BdJaYgQymG1dsfQ54jL-4">
          <mxGeometry relative="1" as="geometry" />
        </mxCell>
        <mxCell id="6BdJaYgQymG1dsfQ54jL-3" value="pertenece" style="rhombus;whiteSpace=wrap;html=1;" vertex="1" parent="1">
          <mxGeometry x="180" y="374" width="80" height="80" as="geometry" />
        </mxCell>
        <mxCell id="6BdJaYgQymG1dsfQ54jL-11" value="1" style="edgeStyle=orthogonalEdgeStyle;rounded=0;orthogonalLoop=1;jettySize=auto;html=1;exitX=1;exitY=0.5;exitDx=0;exitDy=0;entryX=0;entryY=0.5;entryDx=0;entryDy=0;endArrow=none;endFill=0;endSize=8;startSize=8;strokeWidth=2;" edge="1" parent="1" source="6BdJaYgQymG1dsfQ54jL-4" target="6BdJaYgQymG1dsfQ54jL-7">
          <mxGeometry relative="1" as="geometry" />
        </mxCell>
        <mxCell id="6BdJaYgQymG1dsfQ54jL-4" value="Cuenta" style="rounded=0;whiteSpace=wrap;html=1;" vertex="1" parent="1">
          <mxGeometry x="160" y="534" width="120" height="60" as="geometry" />
        </mxCell>
        <mxCell id="6BdJaYgQymG1dsfQ54jL-13" value="0...N" style="edgeStyle=orthogonalEdgeStyle;rounded=0;orthogonalLoop=1;jettySize=auto;html=1;exitX=0.5;exitY=0;exitDx=0;exitDy=0;entryX=0.5;entryY=1;entryDx=0;entryDy=0;endArrow=none;endFill=0;endSize=8;startSize=8;strokeWidth=2;" edge="1" parent="1" source="6BdJaYgQymG1dsfQ54jL-5" target="6BdJaYgQymG1dsfQ54jL-8">
          <mxGeometry relative="1" as="geometry" />
        </mxCell>
        <mxCell id="6BdJaYgQymG1dsfQ54jL-5" value="Movimiento" style="rounded=0;whiteSpace=wrap;html=1;" vertex="1" parent="1">
          <mxGeometry x="520" y="534" width="120" height="60" as="geometry" />
        </mxCell>
        <mxCell id="6BdJaYgQymG1dsfQ54jL-6" value="Tipo" style="rounded=0;whiteSpace=wrap;html=1;" vertex="1" parent="1">
          <mxGeometry x="520" y="234" width="120" height="60" as="geometry" />
        </mxCell>
        <mxCell id="6BdJaYgQymG1dsfQ54jL-12" value="0...N" style="edgeStyle=orthogonalEdgeStyle;rounded=0;orthogonalLoop=1;jettySize=auto;html=1;exitX=1;exitY=0.5;exitDx=0;exitDy=0;entryX=0;entryY=0.5;entryDx=0;entryDy=0;endArrow=none;endFill=0;endSize=8;startSize=8;strokeWidth=2;" edge="1" parent="1" source="6BdJaYgQymG1dsfQ54jL-7" target="6BdJaYgQymG1dsfQ54jL-5">
          <mxGeometry relative="1" as="geometry" />
        </mxCell>
        <mxCell id="6BdJaYgQymG1dsfQ54jL-7" value="Tiene" style="rhombus;whiteSpace=wrap;html=1;" vertex="1" parent="1">
          <mxGeometry x="360" y="524" width="80" height="80" as="geometry" />
        </mxCell>
        <mxCell id="6BdJaYgQymG1dsfQ54jL-14" value="1" style="edgeStyle=orthogonalEdgeStyle;rounded=0;orthogonalLoop=1;jettySize=auto;html=1;exitX=0.5;exitY=0;exitDx=0;exitDy=0;entryX=0.5;entryY=1;entryDx=0;entryDy=0;endArrow=none;endFill=0;endSize=8;startSize=8;strokeWidth=2;" edge="1" parent="1" source="6BdJaYgQymG1dsfQ54jL-8" target="6BdJaYgQymG1dsfQ54jL-6">
          <mxGeometry relative="1" as="geometry" />
        </mxCell>
        <mxCell id="6BdJaYgQymG1dsfQ54jL-8" value="Es" style="rhombus;whiteSpace=wrap;html=1;" vertex="1" parent="1">
          <mxGeometry x="540" y="374" width="80" height="80" as="geometry" />
        </mxCell>
        <mxCell id="6BdJaYgQymG1dsfQ54jL-21" style="edgeStyle=orthogonalEdgeStyle;rounded=0;orthogonalLoop=1;jettySize=auto;html=1;exitX=1;exitY=0.5;exitDx=0;exitDy=0;entryX=0.5;entryY=0;entryDx=0;entryDy=0;" edge="1" parent="1" source="6BdJaYgQymG1dsfQ54jL-15" target="6BdJaYgQymG1dsfQ54jL-1">
          <mxGeometry relative="1" as="geometry" />
        </mxCell>
        <mxCell id="6BdJaYgQymG1dsfQ54jL-15" value="&lt;u&gt;ID_CLIENTE&lt;/u&gt;" style="ellipse;whiteSpace=wrap;html=1;fontSize=6;" vertex="1" parent="1">
          <mxGeometry x="140" y="174" width="60" height="30" as="geometry" />
        </mxCell>
        <mxCell id="6BdJaYgQymG1dsfQ54jL-22" style="edgeStyle=orthogonalEdgeStyle;rounded=0;orthogonalLoop=1;jettySize=auto;html=1;exitX=1;exitY=0.5;exitDx=0;exitDy=0;entryX=0.5;entryY=0;entryDx=0;entryDy=0;" edge="1" parent="1" source="6BdJaYgQymG1dsfQ54jL-16" target="6BdJaYgQymG1dsfQ54jL-1">
          <mxGeometry relative="1" as="geometry" />
        </mxCell>
        <mxCell id="6BdJaYgQymG1dsfQ54jL-16" value="NOMBRE" style="ellipse;whiteSpace=wrap;html=1;fontSize=6;" vertex="1" parent="1">
          <mxGeometry x="140" y="124" width="60" height="30" as="geometry" />
        </mxCell>
        <mxCell id="6BdJaYgQymG1dsfQ54jL-23" style="edgeStyle=orthogonalEdgeStyle;rounded=0;orthogonalLoop=1;jettySize=auto;html=1;exitX=0.5;exitY=1;exitDx=0;exitDy=0;entryX=0.5;entryY=0;entryDx=0;entryDy=0;" edge="1" parent="1" source="6BdJaYgQymG1dsfQ54jL-17" target="6BdJaYgQymG1dsfQ54jL-1">
          <mxGeometry relative="1" as="geometry" />
        </mxCell>
        <mxCell id="6BdJaYgQymG1dsfQ54jL-17" value="APELLIDO" style="ellipse;whiteSpace=wrap;html=1;fontSize=6;" vertex="1" parent="1">
          <mxGeometry x="190" y="84" width="60" height="30" as="geometry" />
        </mxCell>
        <mxCell id="6BdJaYgQymG1dsfQ54jL-27" style="edgeStyle=orthogonalEdgeStyle;rounded=0;orthogonalLoop=1;jettySize=auto;html=1;exitX=0;exitY=0.5;exitDx=0;exitDy=0;entryX=0.5;entryY=0;entryDx=0;entryDy=0;" edge="1" parent="1" source="6BdJaYgQymG1dsfQ54jL-18" target="6BdJaYgQymG1dsfQ54jL-1">
          <mxGeometry relative="1" as="geometry" />
        </mxCell>
        <mxCell id="6BdJaYgQymG1dsfQ54jL-18" value="NIF" style="ellipse;whiteSpace=wrap;html=1;fontSize=6;" vertex="1" parent="1">
          <mxGeometry x="240" y="124" width="60" height="30" as="geometry" />
        </mxCell>
        <mxCell id="6BdJaYgQymG1dsfQ54jL-25" style="edgeStyle=orthogonalEdgeStyle;rounded=0;orthogonalLoop=1;jettySize=auto;html=1;exitX=0;exitY=0.5;exitDx=0;exitDy=0;entryX=0.5;entryY=0;entryDx=0;entryDy=0;" edge="1" parent="1" source="6BdJaYgQymG1dsfQ54jL-19" target="6BdJaYgQymG1dsfQ54jL-1">
          <mxGeometry relative="1" as="geometry" />
        </mxCell>
        <mxCell id="6BdJaYgQymG1dsfQ54jL-19" value="FECHA_NACIMIENTO" style="ellipse;whiteSpace=wrap;html=1;fontSize=6;" vertex="1" parent="1">
          <mxGeometry x="240" y="174" width="60" height="30" as="geometry" />
        </mxCell>
        <mxCell id="6BdJaYgQymG1dsfQ54jL-26" style="edgeStyle=orthogonalEdgeStyle;rounded=0;orthogonalLoop=1;jettySize=auto;html=1;exitX=0.5;exitY=1;exitDx=0;exitDy=0;" edge="1" parent="1" source="6BdJaYgQymG1dsfQ54jL-17" target="6BdJaYgQymG1dsfQ54jL-17">
          <mxGeometry relative="1" as="geometry" />
        </mxCell>
        <mxCell id="6BdJaYgQymG1dsfQ54jL-36" style="edgeStyle=orthogonalEdgeStyle;rounded=0;orthogonalLoop=1;jettySize=auto;html=1;exitX=1;exitY=0.5;exitDx=0;exitDy=0;entryX=0.5;entryY=1;entryDx=0;entryDy=0;" edge="1" parent="1" source="6BdJaYgQymG1dsfQ54jL-28" target="6BdJaYgQymG1dsfQ54jL-4">
          <mxGeometry relative="1" as="geometry" />
        </mxCell>
        <mxCell id="6BdJaYgQymG1dsfQ54jL-28" value="&lt;u&gt;ID_CUENTA&lt;/u&gt;" style="ellipse;whiteSpace=wrap;html=1;fontSize=6;" vertex="1" parent="1">
          <mxGeometry x="140" y="624" width="60" height="30" as="geometry" />
        </mxCell>
        <mxCell id="6BdJaYgQymG1dsfQ54jL-37" style="edgeStyle=orthogonalEdgeStyle;rounded=0;orthogonalLoop=1;jettySize=auto;html=1;exitX=0;exitY=0.5;exitDx=0;exitDy=0;entryX=0.5;entryY=1;entryDx=0;entryDy=0;" edge="1" parent="1" source="6BdJaYgQymG1dsfQ54jL-29" target="6BdJaYgQymG1dsfQ54jL-4">
          <mxGeometry relative="1" as="geometry" />
        </mxCell>
        <mxCell id="6BdJaYgQymG1dsfQ54jL-29" value="NOMBRE" style="ellipse;whiteSpace=wrap;html=1;fontSize=6;" vertex="1" parent="1">
          <mxGeometry x="240" y="624" width="60" height="30" as="geometry" />
        </mxCell>
        <mxCell id="6BdJaYgQymG1dsfQ54jL-42" style="edgeStyle=orthogonalEdgeStyle;rounded=0;orthogonalLoop=1;jettySize=auto;html=1;exitX=0.5;exitY=0;exitDx=0;exitDy=0;entryX=0.5;entryY=1;entryDx=0;entryDy=0;" edge="1" parent="1" source="6BdJaYgQymG1dsfQ54jL-30" target="6BdJaYgQymG1dsfQ54jL-4">
          <mxGeometry relative="1" as="geometry" />
        </mxCell>
        <mxCell id="6BdJaYgQymG1dsfQ54jL-30" value="ACTIVA" style="ellipse;whiteSpace=wrap;html=1;fontSize=6;" vertex="1" parent="1">
          <mxGeometry x="190" y="744" width="60" height="30" as="geometry" />
        </mxCell>
        <mxCell id="6BdJaYgQymG1dsfQ54jL-41" style="edgeStyle=orthogonalEdgeStyle;rounded=0;orthogonalLoop=1;jettySize=auto;html=1;exitX=1;exitY=0.5;exitDx=0;exitDy=0;" edge="1" parent="1" source="6BdJaYgQymG1dsfQ54jL-31">
          <mxGeometry relative="1" as="geometry">
            <mxPoint x="220" y="594" as="targetPoint" />
          </mxGeometry>
        </mxCell>
        <mxCell id="6BdJaYgQymG1dsfQ54jL-31" value="BANCO" style="ellipse;whiteSpace=wrap;html=1;fontSize=6;" vertex="1" parent="1">
          <mxGeometry x="140" y="704" width="60" height="30" as="geometry" />
        </mxCell>
        <mxCell id="6BdJaYgQymG1dsfQ54jL-38" style="edgeStyle=orthogonalEdgeStyle;rounded=0;orthogonalLoop=1;jettySize=auto;html=1;exitX=1;exitY=0.5;exitDx=0;exitDy=0;entryX=0.5;entryY=1;entryDx=0;entryDy=0;" edge="1" parent="1" source="6BdJaYgQymG1dsfQ54jL-32" target="6BdJaYgQymG1dsfQ54jL-4">
          <mxGeometry relative="1" as="geometry" />
        </mxCell>
        <mxCell id="6BdJaYgQymG1dsfQ54jL-32" value="ID_PAIS" style="ellipse;whiteSpace=wrap;html=1;fontSize=6;" vertex="1" parent="1">
          <mxGeometry x="140" y="664" width="60" height="30" as="geometry" />
        </mxCell>
        <mxCell id="6BdJaYgQymG1dsfQ54jL-33" style="edgeStyle=orthogonalEdgeStyle;rounded=0;orthogonalLoop=1;jettySize=auto;html=1;exitX=0.5;exitY=1;exitDx=0;exitDy=0;" edge="1" parent="1" source="6BdJaYgQymG1dsfQ54jL-30" target="6BdJaYgQymG1dsfQ54jL-30">
          <mxGeometry relative="1" as="geometry" />
        </mxCell>
        <mxCell id="6BdJaYgQymG1dsfQ54jL-39" style="edgeStyle=orthogonalEdgeStyle;rounded=0;orthogonalLoop=1;jettySize=auto;html=1;exitX=0;exitY=0.5;exitDx=0;exitDy=0;" edge="1" parent="1" source="6BdJaYgQymG1dsfQ54jL-34">
          <mxGeometry relative="1" as="geometry">
            <mxPoint x="220" y="594" as="targetPoint" />
          </mxGeometry>
        </mxCell>
        <mxCell id="6BdJaYgQymG1dsfQ54jL-34" value="FECHA_ALTA" style="ellipse;whiteSpace=wrap;html=1;fontSize=6;" vertex="1" parent="1">
          <mxGeometry x="240" y="664" width="60" height="30" as="geometry" />
        </mxCell>
        <mxCell id="6BdJaYgQymG1dsfQ54jL-40" style="edgeStyle=orthogonalEdgeStyle;rounded=0;orthogonalLoop=1;jettySize=auto;html=1;exitX=0;exitY=0.5;exitDx=0;exitDy=0;entryX=0.5;entryY=1;entryDx=0;entryDy=0;" edge="1" parent="1" source="6BdJaYgQymG1dsfQ54jL-35" target="6BdJaYgQymG1dsfQ54jL-4">
          <mxGeometry relative="1" as="geometry" />
        </mxCell>
        <mxCell id="6BdJaYgQymG1dsfQ54jL-35" value="FECHA_BAJA" style="ellipse;whiteSpace=wrap;html=1;fontSize=6;" vertex="1" parent="1">
          <mxGeometry x="240" y="704" width="60" height="30" as="geometry" />
        </mxCell>
        <mxCell id="6BdJaYgQymG1dsfQ54jL-48" style="edgeStyle=orthogonalEdgeStyle;rounded=0;orthogonalLoop=1;jettySize=auto;html=1;exitX=1;exitY=0.5;exitDx=0;exitDy=0;entryX=0.5;entryY=1;entryDx=0;entryDy=0;" edge="1" parent="1" source="6BdJaYgQymG1dsfQ54jL-43" target="6BdJaYgQymG1dsfQ54jL-5">
          <mxGeometry relative="1" as="geometry" />
        </mxCell>
        <mxCell id="6BdJaYgQymG1dsfQ54jL-43" value="&lt;u&gt;ID_CUENTA&lt;/u&gt;" style="ellipse;whiteSpace=wrap;html=1;fontSize=6;" vertex="1" parent="1">
          <mxGeometry x="500" y="624" width="60" height="30" as="geometry" />
        </mxCell>
        <mxCell id="6BdJaYgQymG1dsfQ54jL-50" style="edgeStyle=orthogonalEdgeStyle;rounded=0;orthogonalLoop=1;jettySize=auto;html=1;exitX=1;exitY=0.5;exitDx=0;exitDy=0;entryX=0.5;entryY=1;entryDx=0;entryDy=0;" edge="1" parent="1" source="6BdJaYgQymG1dsfQ54jL-44" target="6BdJaYgQymG1dsfQ54jL-5">
          <mxGeometry relative="1" as="geometry" />
        </mxCell>
        <mxCell id="6BdJaYgQymG1dsfQ54jL-44" value="CANTIDAD" style="ellipse;whiteSpace=wrap;html=1;fontSize=6;" vertex="1" parent="1">
          <mxGeometry x="500" y="664" width="60" height="30" as="geometry" />
        </mxCell>
        <mxCell id="6BdJaYgQymG1dsfQ54jL-49" style="edgeStyle=orthogonalEdgeStyle;rounded=0;orthogonalLoop=1;jettySize=auto;html=1;exitX=0;exitY=0.5;exitDx=0;exitDy=0;entryX=0.5;entryY=1;entryDx=0;entryDy=0;" edge="1" parent="1" source="6BdJaYgQymG1dsfQ54jL-45" target="6BdJaYgQymG1dsfQ54jL-5">
          <mxGeometry relative="1" as="geometry" />
        </mxCell>
        <mxCell id="6BdJaYgQymG1dsfQ54jL-45" value="FECHA_MOVIMIENTO" style="ellipse;whiteSpace=wrap;html=1;fontSize=6;" vertex="1" parent="1">
          <mxGeometry x="600" y="624" width="60" height="30" as="geometry" />
        </mxCell>
        <mxCell id="6BdJaYgQymG1dsfQ54jL-51" style="edgeStyle=orthogonalEdgeStyle;rounded=0;orthogonalLoop=1;jettySize=auto;html=1;exitX=0;exitY=0.5;exitDx=0;exitDy=0;entryX=0.5;entryY=1;entryDx=0;entryDy=0;" edge="1" parent="1" source="6BdJaYgQymG1dsfQ54jL-46" target="6BdJaYgQymG1dsfQ54jL-5">
          <mxGeometry relative="1" as="geometry" />
        </mxCell>
        <mxCell id="6BdJaYgQymG1dsfQ54jL-46" value="ID_CUENTA_ORIGINAL" style="ellipse;whiteSpace=wrap;html=1;fontSize=6;" vertex="1" parent="1">
          <mxGeometry x="600" y="664" width="60" height="30" as="geometry" />
        </mxCell>
        <mxCell id="6BdJaYgQymG1dsfQ54jL-55" style="edgeStyle=orthogonalEdgeStyle;rounded=0;orthogonalLoop=1;jettySize=auto;html=1;exitX=0.5;exitY=1;exitDx=0;exitDy=0;entryX=0.5;entryY=0;entryDx=0;entryDy=0;" edge="1" parent="1" source="6BdJaYgQymG1dsfQ54jL-52" target="6BdJaYgQymG1dsfQ54jL-6">
          <mxGeometry relative="1" as="geometry" />
        </mxCell>
        <mxCell id="6BdJaYgQymG1dsfQ54jL-52" value="&lt;u&gt;ID_TIPO:MOVIMIENTO&lt;/u&gt;" style="ellipse;whiteSpace=wrap;html=1;fontSize=6;" vertex="1" parent="1">
          <mxGeometry x="550" y="134" width="60" height="30" as="geometry" />
        </mxCell>
        <mxCell id="6BdJaYgQymG1dsfQ54jL-56" style="edgeStyle=orthogonalEdgeStyle;rounded=0;orthogonalLoop=1;jettySize=auto;html=1;exitX=1;exitY=0.5;exitDx=0;exitDy=0;entryX=0.5;entryY=0;entryDx=0;entryDy=0;" edge="1" parent="1" source="6BdJaYgQymG1dsfQ54jL-53" target="6BdJaYgQymG1dsfQ54jL-6">
          <mxGeometry relative="1" as="geometry" />
        </mxCell>
        <mxCell id="6BdJaYgQymG1dsfQ54jL-53" value="NOMBRE" style="ellipse;whiteSpace=wrap;html=1;fontSize=6;" vertex="1" parent="1">
          <mxGeometry x="500" y="184" width="60" height="30" as="geometry" />
        </mxCell>
        <mxCell id="6BdJaYgQymG1dsfQ54jL-57" style="edgeStyle=orthogonalEdgeStyle;rounded=0;orthogonalLoop=1;jettySize=auto;html=1;exitX=0;exitY=0.5;exitDx=0;exitDy=0;entryX=0.5;entryY=0;entryDx=0;entryDy=0;" edge="1" parent="1" source="6BdJaYgQymG1dsfQ54jL-54" target="6BdJaYgQymG1dsfQ54jL-6">
          <mxGeometry relative="1" as="geometry" />
        </mxCell>
        <mxCell id="6BdJaYgQymG1dsfQ54jL-54" value="DESCRIPCION" style="ellipse;whiteSpace=wrap;html=1;fontSize=6;" vertex="1" parent="1">
          <mxGeometry x="600" y="184" width="60" height="30" as="geometry" />
        </mxCell>
        <mxCell id="6BdJaYgQymG1dsfQ54jL-58" value="&lt;font style=&quot;font-size: 30px;&quot;&gt;&lt;b&gt;&lt;i&gt;&lt;u&gt;BANCO&lt;/u&gt;&lt;/i&gt;&lt;/b&gt;&lt;/font&gt;" style="text;html=1;strokeColor=none;fillColor=none;align=center;verticalAlign=middle;whiteSpace=wrap;rounded=0;" vertex="1" parent="1">
          <mxGeometry x="410" y="10" width="130" height="30" as="geometry" />
        </mxCell>
      </root>
    </mxGraphModel>
  </diagram>
</mxfile>
